<svg viewBox="0 0 64 64" fill="none" xmlns="http://www.w3.org/2000/svg">
    <circle cx="32" cy="32" r="32" fill="black"/>
    <path d="M35 35.9996C35.6 35.9996 36 35.4996 36 34.9996V30.4996C36 30.1996 35.8 29.9996 35.5 29.9996C35.2 29.9996 35 30.1996 35 30.4996V34.9996H29H26H22C21.7 34.9996 21.4 35.0996 21.2 35.3996L18 39.1996V36.0996C18 35.4996 17.6 35.0996 17 35.0996H14V21.0996H35V24.5996C35 24.8996 35.2 25.0996 35.5 25.0996C35.8 25.0996 36 24.8996 36 24.5996V21.0996C36 20.5996 35.6 20.0996 35 20.0996H14C13.4 20.0996 13 20.4996 13 21.0996V35.0996C13 35.5996 13.4 36.0996 14 36.0996H17V40.5996C17 40.8996 17.2 41.0996 17.5 41.0996C17.6 41.0996 17.7 41.0996 17.8 40.9996L21.9 36.0996H25.9H28.9H35V35.9996Z" fill="white"/>
    <path d="M49 27H28C27.4 27 27 27.4 27 28V32.5C27 32.8 27.2 33 27.5 33C27.8 33 28 32.8 28 32.5V28H49V42H46C45.4 42 45 42.4 45 43V46.1L41.8 42.3C41.6 42.1 41.3 41.9 41 41.9H28V38.4C28 38.1 27.8 37.9 27.5 37.9C27.2 37.9 27 38.1 27 38.4V41.9C27 42.4 27.4 42.9 28 42.9H41L45.1 47.8C45.2 47.9 45.3 47.9 45.4 47.9C45.7 47.9 45.9 47.7 45.9 47.4V42.9H48.9C49.5 42.9 49.9 42.4 49.9 41.9V27.9C50 27.5 49.6 27 49 27Z" fill="white"/>
</svg>
