<svg viewBox="0 0 96 96" fill="none" xmlns="http://www.w3.org/2000/svg">
    <path d="M48 0C21.45 0 0 21.45 0 48C0 74.55 21.45 96 48 96C74.55 96 96 74.55 96 48C96 21.45 74.55 0 48 0ZM48 94.5C22.35 94.5 1.5 73.65 1.5 48C1.5 22.35 22.35 1.5 48 1.5C73.65 1.5 94.5 22.35 94.5 48C94.5 73.65 73.65 94.5 48 94.5Z" fill="black"/>
    <path d="M67.5 21H28.5C27.6 21 27 21.6 27 22.5V73.5C27 74.4 27.6 75 28.5 75H67.5C68.4 75 69 74.4 69 73.5V22.5C69 21.6 68.4 21 67.5 21ZM67.5 73.5H28.5V22.5H67.5V73.5Z" fill="black"/>
    <path d="M35.25 31.5H60.75C61.2 31.5 61.5 31.2 61.5 30.75C61.5 30.3 61.2 30 60.75 30H35.25C34.8 30 34.5 30.3 34.5 30.75C34.5 31.2 34.8 31.5 35.25 31.5Z" fill="black"/>
    <path d="M35.25 39H53.25C53.7 39 54 38.7 54 38.25C54 37.8 53.7 37.5 53.25 37.5H35.25C34.8 37.5 34.5 37.8 34.5 38.25C34.5 38.7 34.8 39 35.25 39Z" fill="black"/>
    <path d="M35.25 46.5H57.75C58.2 46.5 58.5 46.2 58.5 45.75C58.5 45.3 58.2 45 57.75 45H35.25C34.8 45 34.5 45.3 34.5 45.75C34.5 46.2 34.8 46.5 35.25 46.5Z" fill="black"/>
    <path d="M40.9453 61.42C40.9453 59.704 39.7093 58.6 37.7533 58.6H34.4413V67H35.9173V64.3H37.5853C39.4333 64.3 40.9453 63.316 40.9453 61.42ZM39.4453 61.456C39.4453 62.356 38.7493 62.968 37.6333 62.968H35.9173V59.944H37.6333C38.7373 59.944 39.4453 60.46 39.4453 61.456ZM52.053 62.788C52.053 60.412 50.229 58.6 47.589 58.6H44.457V67H47.589C50.229 67 52.053 65.164 52.053 62.788ZM50.505 62.812C50.505 64.468 49.353 65.656 47.589 65.656H45.933V59.944H47.589C49.353 59.944 50.505 61.156 50.505 62.812ZM62.0957 58.6H55.8437V67H57.3197V63.58H61.5557V62.236H57.3197V59.944H62.0957V58.6Z" fill="black"/>
</svg>
