<!--<svg viewBox="0 0 34 60" fill="none" xmlns="http://www.w3.org/2000/svg">
    <path d="M30.2 0H3.80002C2.00002 0 0.5 1.5 0.5 3.3V56.7C0.5 58.5 2.00002 60 3.80002 60H30.2C32 60 33.5 58.5 33.5 56.7V3.3C33.5 1.5 32 0 30.2 0ZM32 56.7C32 57.75 31.25 58.5 30.2 58.5H3.80002C2.75002 58.5 2 57.75 2 56.7V3.3C2 2.25 2.75002 1.5 3.80002 1.5H30.2C31.25 1.5 32 2.25 32 3.3V56.7Z" fill="black"/>
    <path d="M17 51C16.1 51 15.5 51.6 15.5 52.5C15.5 53.4 16.1 54 17 54C17.9 54 18.5 53.4 18.5 52.5C18.5 51.6 17.9 51 17 51Z" fill="black"/>
    <path d="M28.25 7.5H5.75C5.3 7.5 5 7.8 5 8.25C5 8.7 5.3 9 5.75 9H28.25C28.7 9 29 8.7 29 8.25C29 7.8 28.7 7.5 28.25 7.5Z" fill="black"/>
    <path d="M28.25 45H5.75C5.3 45 5 45.3 5 45.75C5 46.2 5.3 46.5 5.75 46.5H28.25C28.7 46.5 29 46.2 29 45.75C29 45.3 28.7 45 28.25 45Z" fill="black"/>
</svg>-->
<svg viewBox="0 0 34 60" fill="none" xmlns="http://www.w3.org/2000/svg">
    <path fill-rule="evenodd" clip-rule="evenodd" d="M3 2H31C31.5523 2 32 2.44772 32 3V57C32 57.5523 31.5523 58 31 58H3C2.44772 58 2 57.5523 2 57V3C2 2.44772 2.44772 2 3 2ZM0 3C0 1.34315 1.34315 0 3 0H31C32.6569 0 34 1.34315 34 3V57C34 58.6569 32.6569 60 31 60H3C1.34315 60 0 58.6569 0 57V3ZM6 7C5.44772 7 5 7.44772 5 8C5 8.55229 5.44772 9 6 9H28C28.5523 9 29 8.55229 29 8C29 7.44772 28.5523 7 28 7H6ZM5 45C5 44.4477 5.44772 44 6 44H28C28.5523 44 29 44.4477 29 45C29 45.5523 28.5523 46 28 46H6C5.44772 46 5 45.5523 5 45ZM17 54C18.1046 54 19 53.1046 19 52C19 50.8954 18.1046 50 17 50C15.8954 50 15 50.8954 15 52C15 53.1046 15.8954 54 17 54Z" fill="black"/>
</svg>



