<svg viewBox="0 0 56 42" fill="none" xmlns="http://www.w3.org/2000/svg">
    <path d="M33.5 24C34.4 24 35 23.25 35 22.5V15.75C35 15.3 34.7 15 34.25 15C33.8 15 33.5 15.3 33.5 15.75V22.5H24.5H20H14C13.55 22.5 13.1 22.65 12.8 23.1L8 28.8V24.15C8 23.25 7.4 22.65 6.5 22.65H2V1.65002H33.5V6.90002C33.5 7.35002 33.8 7.65002 34.25 7.65002C34.7 7.65002 35 7.35002 35 6.90002V1.65002C35 0.900024 34.4 0.150024 33.5 0.150024H2C1.1 0.150024 0.5 0.750024 0.5 1.65002V22.65C0.5 23.4 1.1 24.15 2 24.15H6.5V30.9C6.5 31.35 6.8 31.65 7.25 31.65C7.4 31.65 7.54998 31.65 7.69998 31.5L13.85 24.15H19.85H24.35H33.5V24Z" fill="black"/>
    <path d="M54.5 10.5H23C22.1 10.5 21.5 11.1 21.5 12V18.75C21.5 19.2 21.8 19.5 22.25 19.5C22.7 19.5 23 19.2 23 18.75V12H54.5V33H50C49.1 33 48.5 33.6 48.5 34.5V39.15L43.7 33.45C43.4 33.15 42.95 32.85 42.5 32.85H23V27.6C23 27.15 22.7 26.85 22.25 26.85C21.8 26.85 21.5 27.15 21.5 27.6V32.85C21.5 33.6 22.1 34.35 23 34.35H42.5L48.65 41.7C48.8 41.85 48.95 41.85 49.1 41.85C49.55 41.85 49.85 41.55 49.85 41.1V34.35H54.35C55.25 34.35 55.85 33.6 55.85 32.85V11.85C56 11.25 55.4 10.5 54.5 10.5Z" fill="black"/>
</svg>