<!--<svg viewBox="0 0 56 42" fill="none" xmlns="http://www.w3.org/2000/svg">
    <path d="M33.5 24C34.4 24 35 23.25 35 22.5V15.75C35 15.3 34.7 15 34.25 15C33.8 15 33.5 15.3 33.5 15.75V22.5H24.5H20H14C13.55 22.5 13.1 22.65 12.8 23.1L8 28.8V24.15C8 23.25 7.4 22.65 6.5 22.65H2V1.65002H33.5V6.90002C33.5 7.35002 33.8 7.65002 34.25 7.65002C34.7 7.65002 35 7.35002 35 6.90002V1.65002C35 0.900024 34.4 0.150024 33.5 0.150024H2C1.1 0.150024 0.5 0.750024 0.5 1.65002V22.65C0.5 23.4 1.1 24.15 2 24.15H6.5V30.9C6.5 31.35 6.8 31.65 7.25 31.65C7.4 31.65 7.54998 31.65 7.69998 31.5L13.85 24.15H19.85H24.35H33.5V24Z" fill="black"/>
    <path d="M54.5 10.5H23C22.1 10.5 21.5 11.1 21.5 12V18.75C21.5 19.2 21.8 19.5 22.25 19.5C22.7 19.5 23 19.2 23 18.75V12H54.5V33H50C49.1 33 48.5 33.6 48.5 34.5V39.15L43.7 33.45C43.4 33.15 42.95 32.85 42.5 32.85H23V27.6C23 27.15 22.7 26.85 22.25 26.85C21.8 26.85 21.5 27.15 21.5 27.6V32.85C21.5 33.6 22.1 34.35 23 34.35H42.5L48.65 41.7C48.8 41.85 48.95 41.85 49.1 41.85C49.55 41.85 49.85 41.55 49.85 41.1V34.35H54.35C55.25 34.35 55.85 33.6 55.85 32.85V11.85C56 11.25 55.4 10.5 54.5 10.5Z" fill="black"/>
</svg>-->
<svg viewBox="0 0 56 44" fill="none" xmlns="http://www.w3.org/2000/svg">
    <path fill-rule="evenodd" clip-rule="evenodd" d="M2 2H33V8H35V2C35 0.895431 34.1046 0 33 0H2C0.895431 0 0 0.89543 0 2V22C0 23.1046 0.89543 24 2 24H5.5C5.77614 24 6 24.2239 6 24.5V29.8759V30.1985V31.2023V31.619C6 32.0866 6.58473 32.2983 6.88411 31.9391L7.15085 31.619L7.7935 30.8478L8 30.6L13.2002 24.3598C13.3901 24.1318 13.6716 24 13.9684 24H33C34.1046 24 35 23.1046 35 22V16H33V22H13.9684C13.078 22 12.2337 22.3955 11.6637 23.0794L8 27.4759V24.5C8 23.1193 6.88071 22 5.5 22H2V2Z" fill="black"/>
    <path fill-rule="evenodd" clip-rule="evenodd" d="M54 13H23V19H21V13C21 11.8954 21.8954 11 23 11H54C55.1046 11 56 11.8954 56 13V33C56 34.1046 55.1046 35 54 35H50.5C50.2239 35 50 35.2239 50 35.5V40.8759V41.1985V42.2023V42.619C50 43.0866 49.4153 43.2983 49.1159 42.9391L48.8491 42.619L48.2065 41.8478L48 41.6L42.7998 35.3598C42.6099 35.1318 42.3284 35 42.0316 35H23C21.8954 35 21 34.1046 21 33V27H23V33H42.0316C42.922 33 43.7663 33.3955 44.3363 34.0794L48 38.4759V35.5C48 34.1193 49.1193 33 50.5 33H54V13Z" fill="black"/>
</svg>