<svg viewBox="0 0 58 38" fill="none" xmlns="http://www.w3.org/2000/svg">
    <path d="M56 0H2C1.1 0 0.5 0.6 0.5 1.5V36C0.5 36.9 1.1 37.5 2 37.5H56C56.9 37.5 57.5 36.9 57.5 36V1.5C57.5 0.6 56.9 0 56 0ZM56 36H2V1.5H56V36Z" fill="black"/>
    <path d="M6.19999 6.60001L28.25 18.3C28.55 18.45 28.7 18.45 29 18.45C29.3 18.45 29.45 18.45 29.75 18.3L51.8 6.60001C52.1 6.45001 52.25 6.00001 52.1 5.55001C51.9501 5.25001 51.5 5.10001 51.05 5.25001L29 17.1L6.94999 5.40001C6.64999 5.25001 6.19997 5.40001 5.89997 5.70001C5.59997 6.00001 5.74999 6.45001 6.19999 6.60001Z" fill="black"/>
</svg>