<!--<svg viewBox="0 0 58 38" fill="none" xmlns="http://www.w3.org/2000/svg">
    <path d="M56 0H2C1.1 0 0.5 0.6 0.5 1.5V36C0.5 36.9 1.1 37.5 2 37.5H56C56.9 37.5 57.5 36.9 57.5 36V1.5C57.5 0.6 56.9 0 56 0ZM56 36H2V1.5H56V36Z" fill="black"/>
    <path d="M6.19999 6.60001L28.25 18.3C28.55 18.45 28.7 18.45 29 18.45C29.3 18.45 29.45 18.45 29.75 18.3L51.8 6.60001C52.1 6.45001 52.25 6.00001 52.1 5.55001C51.9501 5.25001 51.5 5.10001 51.05 5.25001L29 17.1L6.94999 5.40001C6.64999 5.25001 6.19997 5.40001 5.89997 5.70001C5.59997 6.00001 5.74999 6.45001 6.19999 6.60001Z" fill="black"/>
</svg>-->

<svg viewBox="0 0 56 36" fill="none" xmlns="http://www.w3.org/2000/svg">
    <path fill-rule="evenodd" clip-rule="evenodd" d="M2 2H54V34H2L2 2ZM0 2C0 0.895431 0.895431 0 2 0H54C55.1046 0 56 0.895431 56 2V34C56 35.1046 55.1046 36 54 36H2C0.89543 36 0 35.1046 0 34V2ZM5.49206 5.62944C5.01126 5.35768 4.40119 5.52714 4.12944 6.00794C3.85768 6.48874 4.02714 7.09881 4.50794 7.37056L27.5079 20.3706L28 20.6487L28.4921 20.3706L51.4921 7.37056C51.9729 7.09881 52.1423 6.48874 51.8706 6.00794C51.5988 5.52714 50.9887 5.35768 50.5079 5.62944L28 18.3513L5.49206 5.62944Z" fill="black"/>
</svg>
