<svg viewBox="0 0 168 16" fill="none" xmlns="http://www.w3.org/2000/svg">
    <path fill-rule="evenodd" clip-rule="evenodd" d="M1.93094 6.67236H2.99336C4.86621 6.67236 6.45038 6.49596 6.45038 4.47876C6.45038 2.85276 5.07916 2.44116 3.95877 2.44116H1.93094V6.67236ZM1.93094 12.9016H3.37964C5.11761 12.9016 6.68167 12.529 6.68167 10.6876C6.68167 8.57256 4.84728 8.27856 3.1868 8.27856H1.93094V12.9016ZM0.00012207 0.834961H3.64998C6.45038 0.834961 8.38119 1.75596 8.38119 4.28256C8.38119 6.16296 7.29984 7.10316 5.60032 7.53456V7.57356C7.43531 7.73016 8.72902 8.94456 8.72902 10.864C8.72902 13.8028 6.33443 14.5078 3.59201 14.5078H0.00012207V0.834961Z" fill="white"/>
    <path fill-rule="evenodd" clip-rule="evenodd" d="M17.4614 2.67734L14.777 9.45434H20.1459L17.4614 2.67734ZM16.5149 0.835938H18.5428L24.24 14.5081H22.1347L20.764 11.0611H14.1588L12.7882 14.5081H10.7598L16.5149 0.835938Z" fill="white"/>
    <path fill-rule="evenodd" clip-rule="evenodd" d="M27.1942 0.834961H29.8201L35.7687 11.8432H35.8072V0.834961H37.7386V14.5072H35.2665L29.1641 3.26376H29.1256V14.5072H27.1942V0.834961Z" fill="white"/>
    <path fill-rule="evenodd" clip-rule="evenodd" d="M52.3201 3.26399C51.3736 2.63699 50.3502 2.32439 48.6122 2.32439C45.503 2.32439 43.4362 4.61579 43.4362 7.67159C43.4362 10.8834 45.7154 13.0188 48.5158 13.0188C49.848 13.0188 50.1958 12.8814 50.6785 12.7842V8.63099H47.8397V7.02539H52.6099V14.1354C51.8758 14.3898 50.6016 14.7426 48.4963 14.7426C44.2282 14.7426 41.3894 11.961 41.3894 7.61279C41.3894 3.40139 44.4022 0.600586 48.5158 0.600586C50.4851 0.600586 51.3546 0.893986 52.4744 1.28579L52.3201 3.26399Z" fill="white"/>
    <path fill-rule="evenodd" clip-rule="evenodd" d="M86.3676 13.0188C89.4768 13.0188 90.8096 10.3944 90.8096 7.67159C90.8096 4.88999 89.3419 2.30459 86.3676 2.32439C83.3939 2.30459 81.9263 4.88999 81.9263 7.67159C81.9263 10.3944 83.2584 13.0188 86.3676 13.0188ZM86.3676 0.600586C90.4617 0.600586 92.8569 3.61679 92.8569 7.67159C92.8569 11.8242 90.4812 14.7426 86.3676 14.7426C82.254 14.7426 79.8789 11.8242 79.8789 7.67159C79.8789 3.61679 82.2735 0.600586 86.3676 0.600586Z" fill="white"/>
    <path fill-rule="evenodd" clip-rule="evenodd" d="M96.7013 0.834961H98.6327V12.784H104.272V14.5072H96.7013V0.834961Z" fill="white"/>
    <path fill-rule="evenodd" clip-rule="evenodd" d="M117.281 8.84676C117.281 12.6856 115.369 14.7424 112.047 14.7424C108.726 14.7424 106.814 12.6856 106.814 8.84676V0.834961H108.745V8.59176C108.745 11.2168 109.556 13.0186 112.047 13.0186C114.539 13.0186 115.35 11.2168 115.35 8.59176V0.834961H117.281V8.84676Z" fill="white"/>
    <path fill-rule="evenodd" clip-rule="evenodd" d="M121.941 0.834961H129.106V2.55816H123.873V6.55416H128.874V8.27796H123.873V14.5072H121.941V0.834961Z" fill="white"/>
    <path fill-rule="evenodd" clip-rule="evenodd" d="M139.862 2.89199C138.878 2.50019 138.337 2.32439 137.333 2.32439C136.252 2.32439 134.976 2.71559 134.976 4.14539C134.976 6.77039 140.77 6.16319 140.77 10.6686C140.77 13.587 138.549 14.7426 135.846 14.7426C134.899 14.7426 133.972 14.4684 133.084 14.175L133.277 12.3534C133.933 12.6276 135.093 13.0188 136.078 13.0188C137.178 13.0188 138.723 12.3918 138.723 10.7862C138.723 7.72979 132.929 8.57279 132.929 4.32239C132.929 1.89299 134.822 0.600586 137.255 0.600586C138.144 0.600586 139.206 0.756586 140.133 1.09019L139.862 2.89199Z" fill="white"/>
    <path fill-rule="evenodd" clip-rule="evenodd" d="M145.159 0.834961H152.71V2.55816H147.09V6.55416H152.208V8.27796H147.09V12.784H152.71V14.5072H145.159V0.834961Z" fill="white"/>
    <path fill-rule="evenodd" clip-rule="evenodd" d="M157.174 0.834961H159.801L165.75 11.8432H165.788V0.834961H167.719V14.5072H165.247L159.144 3.26376H159.106V14.5072H157.174V0.834961Z" fill="white"/>
    <mask id="mask0" mask-type="alpha" maskUnits="userSpaceOnUse" x="62" y="0" width="12" height="15">
        <path fill-rule="evenodd" clip-rule="evenodd" d="M62.1921 0.601562H73.2574V14.7706H62.1921V0.601562Z" fill="white"/>
    </mask>
    <g mask="url(#mask0)">
        <path fill-rule="evenodd" clip-rule="evenodd" d="M65.9074 8.24016L64.6823 9.48276C64.0269 10.1476 63.8341 11.3764 64.6823 12.2368C65.5306 13.0972 66.7368 12.9058 67.397 12.2464C68.0565 11.5864 68.6416 10.984 68.6416 10.984L65.9074 8.24016ZM71.9075 14.3062L69.9986 12.3706C69.678 12.6856 69.3621 13.006 68.764 13.6132C67.5792 14.815 65.1361 15.46 63.3247 13.6234C61.4868 11.7586 62.1842 9.24396 63.3153 8.09676C63.7536 7.65276 64.2771 7.13076 64.5504 6.85356C64.3144 6.59556 63.155 5.67756 63.155 4.01376C63.155 2.29356 64.522 0.601562 66.5203 0.601562C67.9814 0.601562 68.8013 1.50936 68.9048 1.61436C68.806 1.71456 67.701 2.83116 67.5454 2.98836C67.397 2.83116 67.0574 2.55816 66.5203 2.55816C65.8885 2.55816 65.0781 3.07776 65.0781 4.02156C65.0781 4.61616 65.4667 5.01096 65.5164 5.06136C66.16 5.71356 69.9915 9.61416 69.9915 9.61416L71.3556 8.22996L72.7132 9.61416L71.3491 10.9912L73.2574 12.9274L71.9075 14.3062Z" fill="white"/>
    </g>
</svg>
